<svg width="200" height="200" viewBox="0 0 200 200" fill="none" xmlns="http://www.w3.org/2000/svg">
<path d="M0 50C0 41.7157 6.71573 35 15 35H114C122.284 35 129 41.7157 129 50V185C129 193.284 122.284 200 114 200H15C6.71573 200 0 193.284 0 185V50Z" fill="#003CFF"/>
<g filter="url(#filter0_b_18_16)">
<path d="M193.144 6.85648C202.285 15.9985 202.285 30.8205 193.144 39.9625L176.654 56.4516L106.687 126.419C102.937 130.169 98.2379 132.83 93.0927 134.116L66.2771 140.82C61.9909 141.891 58.1085 138.009 59.1801 133.723L65.884 106.907C67.1702 101.762 69.8307 97.0633 73.5809 93.3131L143.548 23.3456L160.037 6.85648C169.179 -2.28549 184.002 -2.28549 193.144 6.85648Z" fill="url(#paint0_linear_18_16)" fill-opacity="0.3"/>
</g>
<g filter="url(#filter1_b_18_16)">
<path fill-rule="evenodd" clip-rule="evenodd" d="M192.79 39.6089C201.737 30.6622 201.737 16.1567 192.79 7.21003C183.843 -1.73668 169.338 -1.73668 160.391 7.21003L73.9344 93.6667C70.2483 97.3528 67.6333 101.971 66.369 107.029L59.6651 133.844C58.6851 137.764 62.2359 141.315 66.1558 140.335L92.9714 133.631C98.0287 132.367 102.647 129.752 106.333 126.066L192.79 39.6089ZM193.144 39.9625C202.285 30.8205 202.285 15.9985 193.144 6.85648C184.002 -2.28549 169.179 -2.28549 160.037 6.85648L73.5809 93.3131C69.8307 97.0633 67.1702 101.762 65.884 106.907L59.1801 133.723C58.1085 138.009 61.9909 141.891 66.2771 140.82L93.0927 134.116C98.2379 132.83 102.937 130.169 106.687 126.419L193.144 39.9625Z" fill="url(#paint1_linear_18_16)"/>
<path fill-rule="evenodd" clip-rule="evenodd" d="M192.79 39.6089C201.737 30.6622 201.737 16.1567 192.79 7.21003C183.843 -1.73668 169.338 -1.73668 160.391 7.21003L73.9344 93.6667C70.2483 97.3528 67.6333 101.971 66.369 107.029L59.6651 133.844C58.6851 137.764 62.2359 141.315 66.1558 140.335L92.9714 133.631C98.0287 132.367 102.647 129.752 106.333 126.066L192.79 39.6089ZM193.144 39.9625C202.285 30.8205 202.285 15.9985 193.144 6.85648C184.002 -2.28549 169.179 -2.28549 160.037 6.85648L73.5809 93.3131C69.8307 97.0633 67.1702 101.762 65.884 106.907L59.1801 133.723C58.1085 138.009 61.9909 141.891 66.2771 140.82L93.0927 134.116C98.2379 132.83 102.937 130.169 106.687 126.419L193.144 39.9625Z" fill="url(#paint2_radial_18_16)"/>
</g>
<path d="M68.5331 135.06C66.3189 135.634 64.303 133.618 64.8766 131.404L67.4493 121.473C68.0313 119.227 70.8339 118.464 72.4748 120.104L79.8325 127.462C81.4733 129.103 80.7099 131.906 78.4636 132.488L68.5331 135.06Z" fill="white"/>
<defs>
<filter id="filter0_b_18_16" x="29" y="-30" width="201" height="201" filterUnits="userSpaceOnUse" color-interpolation-filters="sRGB">
<feFlood flood-opacity="0" result="BackgroundImageFix"/>
<feGaussianBlur in="BackgroundImageFix" stdDeviation="15"/>
<feComposite in2="SourceAlpha" operator="in" result="effect1_backgroundBlur_18_16"/>
<feBlend mode="normal" in="SourceGraphic" in2="effect1_backgroundBlur_18_16" result="shape"/>
</filter>
<filter id="filter1_b_18_16" x="29" y="-30" width="201" height="201" filterUnits="userSpaceOnUse" color-interpolation-filters="sRGB">
<feFlood flood-opacity="0" result="BackgroundImageFix"/>
<feGaussianBlur in="BackgroundImageFix" stdDeviation="15"/>
<feComposite in2="SourceAlpha" operator="in" result="effect1_backgroundBlur_18_16"/>
<feBlend mode="normal" in="SourceGraphic" in2="effect1_backgroundBlur_18_16" result="shape"/>
</filter>
<linearGradient id="paint0_linear_18_16" x1="74.0886" y1="13.0089" x2="226.279" y2="91.8114" gradientUnits="userSpaceOnUse">
<stop stop-color="#5A81FF" stop-opacity="0.9"/>
<stop offset="0.447036" stop-color="#567DFF" stop-opacity="0.955296"/>
<stop offset="1" stop-color="#4E78FF" stop-opacity="0.9"/>
</linearGradient>
<linearGradient id="paint1_linear_18_16" x1="79.2915" y1="-5.03571" x2="211.455" y2="72.13" gradientUnits="userSpaceOnUse">
<stop offset="0.188941" stop-color="#E7F0FF" stop-opacity="0.523483"/>
<stop offset="0.526042" stop-color="#88A4FF"/>
<stop offset="1" stop-color="#B4D2FF" stop-opacity="0.1"/>
</linearGradient>
<radialGradient id="paint2_radial_18_16" cx="0" cy="0" r="1" gradientUnits="userSpaceOnUse" gradientTransform="translate(80.072 136.384) rotate(-50.9773) scale(110.731 181.058)">
<stop stop-color="white"/>
<stop offset="1" stop-color="white" stop-opacity="0"/>
</radialGradient>
</defs>
</svg>
