<svg width="164" height="164" viewBox="0 0 164 164" fill="none" xmlns="http://www.w3.org/2000/svg">
<path d="M40 66C40 52.1929 51.1929 41 65 41H98C111.807 41 123 52.1929 123 66V99C123 112.807 111.807 124 98 124H65C51.1929 124 40 112.807 40 99V66Z" fill="#003CFF"/>
<g filter="url(#filter0_b_18_8)">
<path d="M0 15C0 6.71573 6.71573 0 15 0H60C68.2843 0 75 6.71573 75 15V60C75 68.2843 68.2843 75 60 75H15C6.71573 75 0 68.2843 0 60V15Z" fill="url(#paint0_linear_18_8)" fill-opacity="0.3"/>
</g>
<g filter="url(#filter1_b_18_8)">
<path fill-rule="evenodd" clip-rule="evenodd" d="M60 0.5H15C6.99187 0.5 0.5 6.99187 0.5 15V60C0.5 68.0081 6.99187 74.5 15 74.5H60C68.0081 74.5 74.5 68.0081 74.5 60V15C74.5 6.99187 68.0081 0.5 60 0.5ZM15 0C6.71573 0 0 6.71573 0 15V60C0 68.2843 6.71573 75 15 75H60C68.2843 75 75 68.2843 75 60V15C75 6.71573 68.2843 0 60 0H15Z" fill="url(#paint1_linear_18_8)"/>
<path fill-rule="evenodd" clip-rule="evenodd" d="M60 0.5H15C6.99187 0.5 0.5 6.99187 0.5 15V60C0.5 68.0081 6.99187 74.5 15 74.5H60C68.0081 74.5 74.5 68.0081 74.5 60V15C74.5 6.99187 68.0081 0.5 60 0.5ZM15 0C6.71573 0 0 6.71573 0 15V60C0 68.2843 6.71573 75 15 75H60C68.2843 75 75 68.2843 75 60V15C75 6.71573 68.2843 0 60 0H15Z" fill="url(#paint2_radial_18_8)"/>
</g>
<g filter="url(#filter2_b_18_8)">
<path d="M89 15C89 6.71573 95.7157 0 104 0H149C157.284 0 164 6.71573 164 15V60C164 68.2843 157.284 75 149 75H104C95.7157 75 89 68.2843 89 60V15Z" fill="url(#paint3_linear_18_8)" fill-opacity="0.3"/>
</g>
<g filter="url(#filter3_b_18_8)">
<path fill-rule="evenodd" clip-rule="evenodd" d="M149 0.5H104C95.9919 0.5 89.5 6.99187 89.5 15V60C89.5 68.0081 95.9919 74.5 104 74.5H149C157.008 74.5 163.5 68.0081 163.5 60V15C163.5 6.99187 157.008 0.5 149 0.5ZM104 0C95.7157 0 89 6.71573 89 15V60C89 68.2843 95.7157 75 104 75H149C157.284 75 164 68.2843 164 60V15C164 6.71573 157.284 0 149 0H104Z" fill="url(#paint4_linear_18_8)"/>
<path fill-rule="evenodd" clip-rule="evenodd" d="M149 0.5H104C95.9919 0.5 89.5 6.99187 89.5 15V60C89.5 68.0081 95.9919 74.5 104 74.5H149C157.008 74.5 163.5 68.0081 163.5 60V15C163.5 6.99187 157.008 0.5 149 0.5ZM104 0C95.7157 0 89 6.71573 89 15V60C89 68.2843 95.7157 75 104 75H149C157.284 75 164 68.2843 164 60V15C164 6.71573 157.284 0 149 0H104Z" fill="url(#paint5_radial_18_8)"/>
</g>
<g filter="url(#filter4_b_18_8)">
<path d="M89 104C89 95.7157 95.7157 89 104 89H149C157.284 89 164 95.7157 164 104V149C164 157.284 157.284 164 149 164H104C95.7157 164 89 157.284 89 149V104Z" fill="url(#paint6_linear_18_8)" fill-opacity="0.3"/>
</g>
<g filter="url(#filter5_b_18_8)">
<path fill-rule="evenodd" clip-rule="evenodd" d="M149 89.5H104C95.9919 89.5 89.5 95.9919 89.5 104V149C89.5 157.008 95.9919 163.5 104 163.5H149C157.008 163.5 163.5 157.008 163.5 149V104C163.5 95.9919 157.008 89.5 149 89.5ZM104 89C95.7157 89 89 95.7157 89 104V149C89 157.284 95.7157 164 104 164H149C157.284 164 164 157.284 164 149V104C164 95.7157 157.284 89 149 89H104Z" fill="url(#paint7_linear_18_8)"/>
<path fill-rule="evenodd" clip-rule="evenodd" d="M149 89.5H104C95.9919 89.5 89.5 95.9919 89.5 104V149C89.5 157.008 95.9919 163.5 104 163.5H149C157.008 163.5 163.5 157.008 163.5 149V104C163.5 95.9919 157.008 89.5 149 89.5ZM104 89C95.7157 89 89 95.7157 89 104V149C89 157.284 95.7157 164 104 164H149C157.284 164 164 157.284 164 149V104C164 95.7157 157.284 89 149 89H104Z" fill="url(#paint8_radial_18_8)"/>
</g>
<g filter="url(#filter6_b_18_8)">
<path d="M0 104C0 95.7157 6.71573 89 15 89H60C68.2843 89 75 95.7157 75 104V149C75 157.284 68.2843 164 60 164H15C6.71573 164 0 157.284 0 149V104Z" fill="url(#paint9_linear_18_8)" fill-opacity="0.3"/>
</g>
<g filter="url(#filter7_b_18_8)">
<path fill-rule="evenodd" clip-rule="evenodd" d="M60 89.5H15C6.99187 89.5 0.5 95.9919 0.5 104V149C0.5 157.008 6.99187 163.5 15 163.5H60C68.0081 163.5 74.5 157.008 74.5 149V104C74.5 95.9919 68.0081 89.5 60 89.5ZM15 89C6.71573 89 0 95.7157 0 104V149C0 157.284 6.71573 164 15 164H60C68.2843 164 75 157.284 75 149V104C75 95.7157 68.2843 89 60 89H15Z" fill="url(#paint10_linear_18_8)"/>
<path fill-rule="evenodd" clip-rule="evenodd" d="M60 89.5H15C6.99187 89.5 0.5 95.9919 0.5 104V149C0.5 157.008 6.99187 163.5 15 163.5H60C68.0081 163.5 74.5 157.008 74.5 149V104C74.5 95.9919 68.0081 89.5 60 89.5ZM15 89C6.71573 89 0 95.7157 0 104V149C0 157.284 6.71573 164 15 164H60C68.2843 164 75 157.284 75 149V104C75 95.7157 68.2843 89 60 89H15Z" fill="url(#paint11_radial_18_8)"/>
</g>
<defs>
<filter id="filter0_b_18_8" x="-30" y="-30" width="135" height="135" filterUnits="userSpaceOnUse" color-interpolation-filters="sRGB">
<feFlood flood-opacity="0" result="BackgroundImageFix"/>
<feGaussianBlur in="BackgroundImageFix" stdDeviation="15"/>
<feComposite in2="SourceAlpha" operator="in" result="effect1_backgroundBlur_18_8"/>
<feBlend mode="normal" in="SourceGraphic" in2="effect1_backgroundBlur_18_8" result="shape"/>
</filter>
<filter id="filter1_b_18_8" x="-30" y="-30" width="135" height="135" filterUnits="userSpaceOnUse" color-interpolation-filters="sRGB">
<feFlood flood-opacity="0" result="BackgroundImageFix"/>
<feGaussianBlur in="BackgroundImageFix" stdDeviation="15"/>
<feComposite in2="SourceAlpha" operator="in" result="effect1_backgroundBlur_18_8"/>
<feBlend mode="normal" in="SourceGraphic" in2="effect1_backgroundBlur_18_8" result="shape"/>
</filter>
<filter id="filter2_b_18_8" x="59" y="-30" width="135" height="135" filterUnits="userSpaceOnUse" color-interpolation-filters="sRGB">
<feFlood flood-opacity="0" result="BackgroundImageFix"/>
<feGaussianBlur in="BackgroundImageFix" stdDeviation="15"/>
<feComposite in2="SourceAlpha" operator="in" result="effect1_backgroundBlur_18_8"/>
<feBlend mode="normal" in="SourceGraphic" in2="effect1_backgroundBlur_18_8" result="shape"/>
</filter>
<filter id="filter3_b_18_8" x="59" y="-30" width="135" height="135" filterUnits="userSpaceOnUse" color-interpolation-filters="sRGB">
<feFlood flood-opacity="0" result="BackgroundImageFix"/>
<feGaussianBlur in="BackgroundImageFix" stdDeviation="15"/>
<feComposite in2="SourceAlpha" operator="in" result="effect1_backgroundBlur_18_8"/>
<feBlend mode="normal" in="SourceGraphic" in2="effect1_backgroundBlur_18_8" result="shape"/>
</filter>
<filter id="filter4_b_18_8" x="59" y="59" width="135" height="135" filterUnits="userSpaceOnUse" color-interpolation-filters="sRGB">
<feFlood flood-opacity="0" result="BackgroundImageFix"/>
<feGaussianBlur in="BackgroundImageFix" stdDeviation="15"/>
<feComposite in2="SourceAlpha" operator="in" result="effect1_backgroundBlur_18_8"/>
<feBlend mode="normal" in="SourceGraphic" in2="effect1_backgroundBlur_18_8" result="shape"/>
</filter>
<filter id="filter5_b_18_8" x="59" y="59" width="135" height="135" filterUnits="userSpaceOnUse" color-interpolation-filters="sRGB">
<feFlood flood-opacity="0" result="BackgroundImageFix"/>
<feGaussianBlur in="BackgroundImageFix" stdDeviation="15"/>
<feComposite in2="SourceAlpha" operator="in" result="effect1_backgroundBlur_18_8"/>
<feBlend mode="normal" in="SourceGraphic" in2="effect1_backgroundBlur_18_8" result="shape"/>
</filter>
<filter id="filter6_b_18_8" x="-30" y="59" width="135" height="135" filterUnits="userSpaceOnUse" color-interpolation-filters="sRGB">
<feFlood flood-opacity="0" result="BackgroundImageFix"/>
<feGaussianBlur in="BackgroundImageFix" stdDeviation="15"/>
<feComposite in2="SourceAlpha" operator="in" result="effect1_backgroundBlur_18_8"/>
<feBlend mode="normal" in="SourceGraphic" in2="effect1_backgroundBlur_18_8" result="shape"/>
</filter>
<filter id="filter7_b_18_8" x="-30" y="59" width="135" height="135" filterUnits="userSpaceOnUse" color-interpolation-filters="sRGB">
<feFlood flood-opacity="0" result="BackgroundImageFix"/>
<feGaussianBlur in="BackgroundImageFix" stdDeviation="15"/>
<feComposite in2="SourceAlpha" operator="in" result="effect1_backgroundBlur_18_8"/>
<feBlend mode="normal" in="SourceGraphic" in2="effect1_backgroundBlur_18_8" result="shape"/>
</filter>
<linearGradient id="paint0_linear_18_8" x1="8.02583" y1="6.91965" x2="88.9784" y2="48.8359" gradientUnits="userSpaceOnUse">
<stop stop-color="#5A81FF" stop-opacity="0.9"/>
<stop offset="0.447036" stop-color="#567DFF" stop-opacity="0.955296"/>
<stop offset="1" stop-color="#4E78FF" stop-opacity="0.9"/>
</linearGradient>
<linearGradient id="paint1_linear_18_8" x1="10.7934" y1="-2.67857" x2="81.0933" y2="38.367" gradientUnits="userSpaceOnUse">
<stop offset="0.188941" stop-color="#E7F0FF" stop-opacity="0.523483"/>
<stop offset="0.526042" stop-color="#88A4FF"/>
<stop offset="1" stop-color="#B4D2FF" stop-opacity="0.1"/>
</linearGradient>
<radialGradient id="paint2_radial_18_8" cx="0" cy="0" r="1" gradientUnits="userSpaceOnUse" gradientTransform="translate(11.2085 72.5446) rotate(-50.9773) scale(58.8996 96.3076)">
<stop stop-color="white"/>
<stop offset="1" stop-color="white" stop-opacity="0"/>
</radialGradient>
<linearGradient id="paint3_linear_18_8" x1="97.0258" y1="6.91965" x2="177.978" y2="48.8359" gradientUnits="userSpaceOnUse">
<stop stop-color="#5A81FF" stop-opacity="0.9"/>
<stop offset="0.447036" stop-color="#567DFF" stop-opacity="0.955296"/>
<stop offset="1" stop-color="#4E78FF" stop-opacity="0.9"/>
</linearGradient>
<linearGradient id="paint4_linear_18_8" x1="99.7934" y1="-2.67857" x2="170.093" y2="38.367" gradientUnits="userSpaceOnUse">
<stop offset="0.188941" stop-color="#E7F0FF" stop-opacity="0.523483"/>
<stop offset="0.526042" stop-color="#88A4FF"/>
<stop offset="1" stop-color="#B4D2FF" stop-opacity="0.1"/>
</linearGradient>
<radialGradient id="paint5_radial_18_8" cx="0" cy="0" r="1" gradientUnits="userSpaceOnUse" gradientTransform="translate(100.208 72.5446) rotate(-50.9773) scale(58.8996 96.3076)">
<stop stop-color="white"/>
<stop offset="1" stop-color="white" stop-opacity="0"/>
</radialGradient>
<linearGradient id="paint6_linear_18_8" x1="97.0258" y1="95.9196" x2="177.978" y2="137.836" gradientUnits="userSpaceOnUse">
<stop stop-color="#5A81FF" stop-opacity="0.9"/>
<stop offset="0.447036" stop-color="#567DFF" stop-opacity="0.955296"/>
<stop offset="1" stop-color="#4E78FF" stop-opacity="0.9"/>
</linearGradient>
<linearGradient id="paint7_linear_18_8" x1="99.7934" y1="86.3214" x2="170.093" y2="127.367" gradientUnits="userSpaceOnUse">
<stop offset="0.188941" stop-color="#E7F0FF" stop-opacity="0.523483"/>
<stop offset="0.526042" stop-color="#88A4FF"/>
<stop offset="1" stop-color="#B4D2FF" stop-opacity="0.1"/>
</linearGradient>
<radialGradient id="paint8_radial_18_8" cx="0" cy="0" r="1" gradientUnits="userSpaceOnUse" gradientTransform="translate(100.208 161.545) rotate(-50.9773) scale(58.8996 96.3076)">
<stop stop-color="white"/>
<stop offset="1" stop-color="white" stop-opacity="0"/>
</radialGradient>
<linearGradient id="paint9_linear_18_8" x1="8.02583" y1="95.9196" x2="88.9784" y2="137.836" gradientUnits="userSpaceOnUse">
<stop stop-color="#5A81FF" stop-opacity="0.9"/>
<stop offset="0.447036" stop-color="#567DFF" stop-opacity="0.955296"/>
<stop offset="1" stop-color="#4E78FF" stop-opacity="0.9"/>
</linearGradient>
<linearGradient id="paint10_linear_18_8" x1="10.7934" y1="86.3214" x2="81.0933" y2="127.367" gradientUnits="userSpaceOnUse">
<stop offset="0.188941" stop-color="#E7F0FF" stop-opacity="0.523483"/>
<stop offset="0.526042" stop-color="#88A4FF"/>
<stop offset="1" stop-color="#B4D2FF" stop-opacity="0.1"/>
</linearGradient>
<radialGradient id="paint11_radial_18_8" cx="0" cy="0" r="1" gradientUnits="userSpaceOnUse" gradientTransform="translate(11.2085 161.545) rotate(-50.9773) scale(58.8996 96.3076)">
<stop stop-color="white"/>
<stop offset="1" stop-color="white" stop-opacity="0"/>
</radialGradient>
</defs>
</svg>
