<svg width="258" height="155" viewBox="0 0 258 155" fill="none" xmlns="http://www.w3.org/2000/svg">
<path d="M257.5 57.5C257.5 89.2564 231.756 115 200 115C168.244 115 142.5 89.2564 142.5 57.5C142.5 25.7436 168.244 0 200 0C231.756 0 257.5 25.7436 257.5 57.5Z" fill="#003CFF"/>
<g filter="url(#filter0_b_18_21)">
<path d="M0 93.3334C0 62.0373 25.3705 36.6667 56.6666 36.6667H153.333C184.629 36.6667 210 62.0373 210 93.3334C210 124.63 184.629 150 153.333 150H56.6666C25.3705 150 0 124.63 0 93.3334Z" fill="url(#paint0_linear_18_21)" fill-opacity="0.3"/>
</g>
<g filter="url(#filter1_b_18_21)">
<path fill-rule="evenodd" clip-rule="evenodd" d="M153.333 37.6667H56.6666C25.9228 37.6667 1 62.5896 1 93.3334C1 124.077 25.9228 149 56.6666 149H153.333C184.077 149 209 124.077 209 93.3334C209 62.5896 184.077 37.6667 153.333 37.6667ZM56.6666 36.6667C25.3705 36.6667 0 62.0373 0 93.3334C0 124.63 25.3705 150 56.6666 150H153.333C184.629 150 210 124.63 210 93.3334C210 62.0373 184.629 36.6667 153.333 36.6667H56.6666Z" fill="url(#paint1_linear_18_21)"/>
<path fill-rule="evenodd" clip-rule="evenodd" d="M153.333 37.6667H56.6666C25.9228 37.6667 1 62.5896 1 93.3334C1 124.077 25.9228 149 56.6666 149H153.333C184.077 149 209 124.077 209 93.3334C209 62.5896 184.077 37.6667 153.333 37.6667ZM56.6666 36.6667C25.3705 36.6667 0 62.0373 0 93.3334C0 124.63 25.3705 150 56.6666 150H153.333C184.629 150 210 124.63 210 93.3334C210 62.0373 184.629 36.6667 153.333 36.6667H56.6666Z" fill="url(#paint2_radial_18_21)"/>
</g>
<g filter="url(#filter2_d_18_21)">
<circle cx="57.9167" cy="93.7501" r="47.0833" fill="white"/>
</g>
<defs>
<filter id="filter0_b_18_21" x="-30" y="6.66675" width="270" height="173.333" filterUnits="userSpaceOnUse" color-interpolation-filters="sRGB">
<feFlood flood-opacity="0" result="BackgroundImageFix"/>
<feGaussianBlur in="BackgroundImageFix" stdDeviation="15"/>
<feComposite in2="SourceAlpha" operator="in" result="effect1_backgroundBlur_18_21"/>
<feBlend mode="normal" in="SourceGraphic" in2="effect1_backgroundBlur_18_21" result="shape"/>
</filter>
<filter id="filter1_b_18_21" x="-30" y="6.66675" width="270" height="173.333" filterUnits="userSpaceOnUse" color-interpolation-filters="sRGB">
<feFlood flood-opacity="0" result="BackgroundImageFix"/>
<feGaussianBlur in="BackgroundImageFix" stdDeviation="15"/>
<feComposite in2="SourceAlpha" operator="in" result="effect1_backgroundBlur_18_21"/>
<feBlend mode="normal" in="SourceGraphic" in2="effect1_backgroundBlur_18_21" result="shape"/>
</filter>
<filter id="filter2_d_18_21" x="0.833374" y="40.6667" width="114.167" height="114.167" filterUnits="userSpaceOnUse" color-interpolation-filters="sRGB">
<feFlood flood-opacity="0" result="BackgroundImageFix"/>
<feColorMatrix in="SourceAlpha" type="matrix" values="0 0 0 0 0 0 0 0 0 0 0 0 0 0 0 0 0 0 127 0" result="hardAlpha"/>
<feOffset dy="4"/>
<feGaussianBlur stdDeviation="5"/>
<feComposite in2="hardAlpha" operator="out"/>
<feColorMatrix type="matrix" values="0 0 0 0 0 0 0 0 0 0 0 0 0 0 0 0 0 0 0.05 0"/>
<feBlend mode="normal" in2="BackgroundImageFix" result="effect1_dropShadow_18_21"/>
<feBlend mode="normal" in="SourceGraphic" in2="effect1_dropShadow_18_21" result="shape"/>
</filter>
<linearGradient id="paint0_linear_18_21" x1="22.4723" y1="47.1231" x2="172.14" y2="190.719" gradientUnits="userSpaceOnUse">
<stop stop-color="#5A81FF" stop-opacity="0.9"/>
<stop offset="0.447036" stop-color="#567DFF" stop-opacity="0.955296"/>
<stop offset="1" stop-color="#4E78FF" stop-opacity="0.9"/>
</linearGradient>
<linearGradient id="paint1_linear_18_21" x1="30.2214" y1="32.6191" x2="151.829" y2="164.183" gradientUnits="userSpaceOnUse">
<stop offset="0.188941" stop-color="#E7F0FF" stop-opacity="0.523483"/>
<stop offset="0.526042" stop-color="#88A4FF"/>
<stop offset="1" stop-color="#B4D2FF" stop-opacity="0.1"/>
</linearGradient>
<radialGradient id="paint2_radial_18_21" cx="0" cy="0" r="1" gradientUnits="userSpaceOnUse" gradientTransform="translate(31.3838 146.29) rotate(-33.6602) scale(124.754 192.386)">
<stop stop-color="white"/>
<stop offset="1" stop-color="white" stop-opacity="0"/>
</radialGradient>
</defs>
</svg>
