<svg width="250" height="244" viewBox="0 0 250 244" fill="none" xmlns="http://www.w3.org/2000/svg">
<path d="M142.665 35.1343C137.846 32.3521 132.086 31.7033 126.769 33.3436L66.3751 51.9758C56.375 55.061 50.4441 65.3336 52.7724 75.5365L66.8335 137.155C68.0714 142.58 71.5134 147.244 76.3322 150.026L166.347 201.996C175.912 207.519 188.144 204.242 193.667 194.676L240 114.425C245.523 104.859 242.245 92.6269 232.679 87.1041L142.665 35.1343Z" fill="#003CFF"/>
<g filter="url(#filter0_b_18_27)">
<path d="M132.666 119.65C132.666 114.086 130.348 108.773 126.269 104.988L79.9358 62.0017C72.2639 54.8839 60.4021 54.8839 52.7302 62.0017L6.39723 104.988C2.3181 108.773 0 114.086 0 119.65V223.59C0 234.635 8.95431 243.59 20 243.59H112.666C123.712 243.59 132.666 234.635 132.666 223.59V119.65Z" fill="url(#paint0_linear_18_27)" fill-opacity="0.3"/>
</g>
<g filter="url(#filter1_b_18_27)">
<path fill-rule="evenodd" clip-rule="evenodd" d="M125.929 105.355L79.5957 62.3682C72.1157 55.4284 60.5504 55.4284 53.0703 62.3682L6.7373 105.355C2.76015 109.045 0.5 114.225 0.5 119.65V223.59C0.5 234.359 9.23045 243.09 20 243.09H112.666C123.436 243.09 132.166 234.359 132.166 223.59V119.65C132.166 114.225 129.906 109.045 125.929 105.355ZM126.269 104.988C130.348 108.773 132.666 114.086 132.666 119.65V223.59C132.666 234.635 123.712 243.59 112.666 243.59H20C8.95431 243.59 0 234.635 0 223.59V119.65C0 114.086 2.3181 108.773 6.39723 104.988L52.7302 62.0017C60.4021 54.8839 72.2639 54.8839 79.9358 62.0017L126.269 104.988Z" fill="url(#paint1_linear_18_27)"/>
<path fill-rule="evenodd" clip-rule="evenodd" d="M125.929 105.355L79.5957 62.3682C72.1157 55.4284 60.5504 55.4284 53.0703 62.3682L6.7373 105.355C2.76015 109.045 0.5 114.225 0.5 119.65V223.59C0.5 234.359 9.23045 243.09 20 243.09H112.666C123.436 243.09 132.166 234.359 132.166 223.59V119.65C132.166 114.225 129.906 109.045 125.929 105.355ZM126.269 104.988C130.348 108.773 132.666 114.086 132.666 119.65V223.59C132.666 234.635 123.712 243.59 112.666 243.59H20C8.95431 243.59 0 234.635 0 223.59V119.65C0 114.086 2.3181 108.773 6.39723 104.988L52.7302 62.0017C60.4021 54.8839 72.2639 54.8839 79.9358 62.0017L126.269 104.988Z" fill="url(#paint2_radial_18_27)"/>
</g>
<path d="M42.0345 147.584C42.0345 144.376 43.0015 141.829 44.9354 139.942C46.8694 138.008 49.3459 137.041 52.3647 137.041C55.3836 137.041 57.8601 138.008 59.794 139.942C61.728 141.829 62.695 144.376 62.695 147.584C62.695 150.838 61.728 153.433 59.794 155.367C57.8601 157.253 55.3836 158.197 52.3647 158.197C49.3459 158.197 46.8694 157.253 44.9354 155.367C43.0015 153.433 42.0345 150.838 42.0345 147.584ZM78.5736 137.819C80.6963 137.819 82.0209 140.119 80.9556 141.955L55.4957 185.835C55.0029 186.684 54.0954 187.206 53.1136 187.206C50.991 187.206 49.6663 184.906 50.7316 183.07L76.1916 139.191C76.6843 138.342 77.5918 137.819 78.5736 137.819ZM52.3647 141.003C50.761 141.003 49.4874 141.569 48.544 142.701C47.6477 143.786 47.1996 145.414 47.1996 147.584C47.1996 149.753 47.6477 151.404 48.544 152.536C49.4874 153.668 50.761 154.235 52.3647 154.235C53.9685 154.235 55.2421 153.668 56.1855 152.536C57.1289 151.357 57.6006 149.706 57.6006 147.584C57.6006 145.414 57.1289 143.786 56.1855 142.701C55.2421 141.569 53.9685 141.003 52.3647 141.003ZM69.1337 177.442C69.1337 174.188 70.1007 171.617 72.0347 169.73C73.9687 167.796 76.4451 166.829 79.464 166.829C82.4829 166.829 84.9357 167.796 86.8225 169.73C88.7565 171.617 89.7235 174.188 89.7235 177.442C89.7235 180.65 88.7565 183.221 86.8225 185.155C84.9357 187.089 82.4829 188.056 79.464 188.056C76.4451 188.056 73.9687 187.112 72.0347 185.225C70.1007 183.291 69.1337 180.697 69.1337 177.442ZM79.3932 170.862C77.7894 170.862 76.5159 171.428 75.5725 172.56C74.629 173.645 74.1573 175.272 74.1573 177.442C74.1573 179.565 74.629 181.192 75.5725 182.324C76.5159 183.409 77.7894 183.952 79.3932 183.952C80.997 183.952 82.2706 183.409 83.214 182.324C84.1574 181.192 84.6291 179.565 84.6291 177.442C84.6291 175.272 84.1574 173.645 83.214 172.56C82.2706 171.428 80.997 170.862 79.3932 170.862Z" fill="white"/>
<circle cx="66.333" cy="70.7552" r="6.6333" fill="white"/>
<defs>
<filter id="filter0_b_18_27" x="-30" y="26.6633" width="192.666" height="246.926" filterUnits="userSpaceOnUse" color-interpolation-filters="sRGB">
<feFlood flood-opacity="0" result="BackgroundImageFix"/>
<feGaussianBlur in="BackgroundImageFix" stdDeviation="15"/>
<feComposite in2="SourceAlpha" operator="in" result="effect1_backgroundBlur_18_27"/>
<feBlend mode="normal" in="SourceGraphic" in2="effect1_backgroundBlur_18_27" result="shape"/>
</filter>
<filter id="filter1_b_18_27" x="-30" y="26.6633" width="192.666" height="246.926" filterUnits="userSpaceOnUse" color-interpolation-filters="sRGB">
<feFlood flood-opacity="0" result="BackgroundImageFix"/>
<feGaussianBlur in="BackgroundImageFix" stdDeviation="15"/>
<feComposite in2="SourceAlpha" operator="in" result="effect1_backgroundBlur_18_27"/>
<feBlend mode="normal" in="SourceGraphic" in2="effect1_backgroundBlur_18_27" result="shape"/>
</filter>
<linearGradient id="paint0_linear_18_27" x1="14.1967" y1="73.9095" x2="174.179" y2="132.701" gradientUnits="userSpaceOnUse">
<stop stop-color="#5A81FF" stop-opacity="0.9"/>
<stop offset="0.447036" stop-color="#567DFF" stop-opacity="0.955296"/>
<stop offset="1" stop-color="#4E78FF" stop-opacity="0.9"/>
</linearGradient>
<linearGradient id="paint1_linear_18_27" x1="19.0922" y1="49.9874" x2="161.4" y2="108.957" gradientUnits="userSpaceOnUse">
<stop offset="0.188941" stop-color="#E7F0FF" stop-opacity="0.523483"/>
<stop offset="0.526042" stop-color="#88A4FF"/>
<stop offset="1" stop-color="#B4D2FF" stop-opacity="0.1"/>
</linearGradient>
<radialGradient id="paint2_radial_18_27" cx="0" cy="0" r="1" gradientUnits="userSpaceOnUse" gradientTransform="translate(19.8265 237.47) rotate(-60.093) scale(131.567 190.078)">
<stop stop-color="white"/>
<stop offset="1" stop-color="white" stop-opacity="0"/>
</radialGradient>
</defs>
</svg>
